<svg xmlns="http://www.w3.org/2000/svg" viewBox="0 0 102 58" role="img" aria-label="Sailr">
  <path fill="#082850" d="M13.11 46.506C10.3807 46.506 8.004 46.092 5.98 45.264C3.98667 44.436 2.162 43.1327 0.506 41.354L5.704 36.11C6.83867 37.306 8.05 38.226 9.338 38.87C10.626 39.4833 12.0827 39.79 13.708 39.79C15.088 39.79 16.146 39.56 16.882 39.1C17.6487 38.6093 18.032 37.95 18.032 37.122C18.032 36.3553 17.756 35.7267 17.204 35.236C16.652 34.7147 15.916 34.27 14.996 33.902C14.1067 33.5033 13.11 33.1353 12.006 32.798C10.9327 32.43 9.844 32.0007 8.74 31.51C7.66667 30.9887 6.67 30.36 5.75 29.624C4.86067 28.888 4.14 27.968 3.588 26.864C3.036 25.76 2.76 24.3953 2.76 22.77C2.76 20.6847 3.25067 18.906 4.232 17.434C5.244 15.962 6.63933 14.8273 8.418 14.03C10.1967 13.2327 12.2667 12.834 14.628 12.834C16.9893 12.834 19.1667 13.2327 21.16 14.03C23.1533 14.8273 24.794 15.9313 26.082 17.342L20.838 22.54C19.8567 21.5587 18.86 20.8227 17.848 20.332C16.836 19.8413 15.732 19.596 14.536 19.596C13.4013 19.596 12.512 19.7953 11.868 20.194C11.224 20.5927 10.902 21.16 10.902 21.896C10.902 22.632 11.178 23.23 11.73 23.69C12.282 24.15 13.0027 24.564 13.892 24.932C14.812 25.2693 15.8087 25.622 16.882 25.99C17.986 26.358 19.0747 26.7873 20.148 27.278C21.2213 27.7687 22.2027 28.3973 23.092 29.164C24.012 29.9307 24.748 30.8967 25.3 32.062C25.852 33.2273 26.128 34.638 26.128 36.294C26.128 39.5447 24.978 42.0593 22.678 43.838C20.4087 45.6167 17.2193 46.506 13.11 46.506ZM39.0874 46.46C37.0021 46.46 35.1468 45.954 33.5214 44.942C31.8961 43.93 30.6234 42.55 29.7034 40.802C28.7834 39.0233 28.3234 37.0147 28.3234 34.776C28.3234 32.5067 28.7834 30.4827 29.7034 28.704C30.6234 26.9253 31.8961 25.5453 33.5214 24.564C35.1468 23.552 37.0021 23.046 39.0874 23.046C40.4981 23.046 41.7861 23.3067 42.9514 23.828C44.1168 24.3187 45.0674 25.024 45.8034 25.944C46.5701 26.864 47.0301 27.9067 47.1834 29.072V40.388C47.0301 41.584 46.5701 42.642 45.8034 43.562C45.0674 44.4513 44.1168 45.1567 42.9514 45.678C41.7861 46.1993 40.4981 46.46 39.0874 46.46ZM40.7894 39.33C42.1081 39.33 43.1661 38.9007 43.9634 38.042C44.7914 37.1833 45.2054 36.0793 45.2054 34.73C45.2054 33.8407 45.0214 33.0587 44.6534 32.384C44.2854 31.7093 43.7641 31.1727 43.0894 30.774C42.4454 30.3753 41.6941 30.176 40.8354 30.176C39.9768 30.176 39.2101 30.3753 38.5354 30.774C37.8914 31.1727 37.3701 31.7247 36.9714 32.43C36.6034 33.1047 36.4194 33.8713 36.4194 34.73C36.4194 35.6193 36.6034 36.4167 36.9714 37.122C37.3394 37.7967 37.8608 38.3333 38.5354 38.732C39.2101 39.1307 39.9614 39.33 40.7894 39.33ZM44.8834 46V39.974L46.0334 34.454L44.8834 29.026V23.506H52.7494V46H44.8834ZM57.4202 46V23.506H65.4242V46H57.4202ZM70.1331 46V12.466H78.1371V46H70.1331ZM82.846 46V23.506H90.85V46H82.846ZM90.85 33.764L87.262 30.728C88.1513 28.1827 89.332 26.266 90.804 24.978C92.276 23.69 94.1927 23.046 96.554 23.046C97.6273 23.046 98.5473 23.184 99.314 23.46C100.111 23.736 100.786 24.1653 101.338 24.748L96.692 30.958C96.4467 30.682 96.094 30.4673 95.634 30.314C95.2047 30.13 94.714 30.038 94.162 30.038C93.1193 30.038 92.3067 30.36 91.724 31.004C91.1413 31.6173 90.85 32.5373 90.85 33.764Z"/>
  <path fill="#0061FF" d="M61.66 5.93201C67.939 8.34701 69.388 14.626 67.939 21.388H55.381L61.66 5.93201Z"/>
</svg>
